<svg id="Layer_1" data-name="Layer 1" xmlns="http://www.w3.org/2000/svg" viewBox="0 0 94.56 122.88"><defs><style>.cls-1{fill-rule:evenodd;}</style></defs><title>euro-money-bag</title><path class="cls-1" d="M38.14,21.15c-1.9-5.6-3.6-11.26-5-17,5.38-5.9,26.16-5.12,32.13-.1L59.69,17.21c3-3.91,4-5.52,5.75-7.69a17.45,17.45,0,0,1,2.11,1.63c1.57,1.43,3,3,3.26,5.2a5.38,5.38,0,0,1-1.49,4.34L56.63,35.48a27,27,0,0,1-4.78-1.22c.72-1.69,1.59-3.55,2.31-5.25l-4.62,5a17.34,17.34,0,0,0-12.3,1.5L24.37,20.05a4.3,4.3,0,0,1-1.11-2.76c0-3.73,5.58-7,8.5-8.18l6.38,12Zm16.5,27.91L52.12,37.57c10.76,2,28,23.89,33.58,33.84a94.1,94.1,0,0,1,7.38,16.93c4.06,15.14.15,29.31-16.28,32.6-10.29,2.07-29.48,2.22-40.3,1.66C24.86,122,6.86,122,2.16,110.07c-7.59-19.28,6.31-42.25,19-56.31a68.26,68.26,0,0,1,5.18-5.17c4.62-4.06,9.59-8.87,15.53-10.87L36.12,48.39l8.33-11h4.39l5.8,11.71Zm2,37.65L55.4,91.79H46.93A6.83,6.83,0,0,0,54.07,97a18.57,18.57,0,0,0,11.27-3.88V103.5a18.2,18.2,0,0,1-10.51,3q-10,0-14.73-4.54a18.81,18.81,0,0,1-5.83-10.14H29.22l1.33-5.08h3.08a16,16,0,0,1,0-3.09H29.91l1.32-5.08h3Q37.9,64.2,54.2,64.2A23.26,23.26,0,0,1,65,67.05L62.48,77.17a11.64,11.64,0,0,0-7.93-3.49,7.19,7.19,0,0,0-7.32,4.86H57.3l-1.22,5.08H46.26c-.1,1-.06,2.09-.06,3.09Z"/></svg>